<svg width="30" height="30" viewBox="0 0 30 30" fill="none" xmlns="http://www.w3.org/2000/svg">
<g clip-path="url(#clip0_801_111)">
<g clip-path="url(#clip1_801_111)">
<path d="M6.5625 3.1875H23.4375C25.3125 3.1875 26.8125 4.6875 26.8125 6.5625V23.4375C26.8125 25.3125 25.3125 26.8125 23.4375 26.8125H6.5625C4.6875 26.8125 3.1875 25.3125 3.1875 23.4375V6.5625C3.1875 4.6875 4.6875 3.1875 6.5625 3.1875Z" fill="white"/>
<path d="M24.375 1.875H5.625C3.5625 1.875 1.875 3.5625 1.875 5.625V24.375C1.875 26.4375 3.5625 28.125 5.625 28.125H24.375C26.4375 28.125 28.125 26.4375 28.125 24.375V5.625C28.125 3.5625 26.4375 1.875 24.375 1.875Z" fill="#747474"/>
<path d="M16.3125 13.875L21.5625 7.78125H20.3438L15.75 13.125L12.1875 7.78125H7.96875L13.5 15.75L7.96875 22.125H9.1875L13.9687 16.5L17.8125 22.125H22.0312L16.3125 13.875ZM14.625 15.8437L14.0625 15.0938L9.65625 8.71875H11.5313L15.0938 13.875L15.6563 14.625L20.3438 21.2813H18.4688L14.625 15.8437Z" fill="white"/>
</g>
</g>
<defs>
<clipPath id="clip0_801_111">
<rect width="30" height="30" fill="white"/>
</clipPath>
<clipPath id="clip1_801_111">
<rect width="30" height="30" fill="white"/>
</clipPath>
</defs>
</svg>
