<svg width="28" height="28" viewBox="0 0 28 28" fill="none" xmlns="http://www.w3.org/2000/svg">
<path d="M23.375 0.875H4.625C3.63044 0.875 2.67661 1.27009 1.97335 1.97335C1.27009 2.67661 0.875 3.63044 0.875 4.625V23.375C0.875 24.3696 1.27009 25.3234 1.97335 26.0266C2.67661 26.7299 3.63044 27.125 4.625 27.125H14.9375V16.9719H11.4875V12.9969H14.9375V10.0719C14.9375 6.6875 17.0094 4.84063 20.0281 4.84063C21.0487 4.83915 22.0688 4.88921 23.0844 4.99062V8.53438H20.9656C19.325 8.53438 18.9969 9.3125 18.9969 10.4656V12.9969H22.9344L22.4375 16.9719H18.9781V27.125H23.375C24.3696 27.125 25.3234 26.7299 26.0266 26.0266C26.7299 25.3234 27.125 24.3696 27.125 23.375V4.625C27.125 3.63044 26.7299 2.67661 26.0266 1.97335C25.3234 1.27009 24.3696 0.875 23.375 0.875Z" fill="#747474"/>
</svg>
