<svg width="28" height="28" viewBox="0 0 28 28" fill="none" xmlns="http://www.w3.org/2000/svg">
<path d="M20.5625 9.02185C20.4173 8.66552 20.2023 8.3418 19.9302 8.06972C19.6582 7.79764 19.3344 7.58268 18.9781 7.43748C18.476 7.25411 17.9469 7.15588 17.4125 7.14685C16.5218 7.14685 16.25 7.09998 14 7.09998C11.75 7.09998 11.4781 7.09997 10.5875 7.14685C10.0531 7.15588 9.5239 7.25411 9.02185 7.43748C8.66552 7.58268 8.3418 7.79764 8.06972 8.06972C7.79764 8.3418 7.58268 8.66552 7.43748 9.02185C7.25411 9.5239 7.15588 10.0531 7.14685 10.5875C7.14685 11.525 7.09998 11.75 7.09998 14C7.09998 16.25 7.09997 16.5218 7.14685 17.4125C7.15588 17.9469 7.25411 18.476 7.43748 18.9781C7.58268 19.3344 7.79764 19.6582 8.06972 19.9302C8.3418 20.2023 8.66552 20.4173 9.02185 20.5625C9.5239 20.7458 10.0531 20.8441 10.5875 20.8531C11.525 20.8531 11.75 20.9 14 20.9C16.25 20.9 16.5218 20.9 17.4125 20.8531C17.9469 20.8441 18.476 20.7458 18.9781 20.5625C19.3344 20.4173 19.6582 20.2023 19.9302 19.9302C20.2023 19.6582 20.4173 19.3344 20.5625 18.9781C20.7458 18.476 20.8441 17.9469 20.8531 17.4125C20.8531 16.5218 20.9 16.25 20.9 14C20.9 11.75 20.9 11.4781 20.8531 10.5875C20.8441 10.0531 20.7458 9.5239 20.5625 9.02185ZM14 18.3312C13.1433 18.3312 12.3059 18.0772 11.5937 17.6013C10.8814 17.1254 10.3262 16.4489 9.99842 15.6575C9.6706 14.866 9.58483 13.9952 9.75195 13.155C9.91907 12.3148 10.3316 11.5431 10.9373 10.9373C11.5431 10.3316 12.3148 9.91907 13.155 9.75195C13.9952 9.58483 14.866 9.6706 15.6575 9.99842C16.4489 10.3262 17.1254 10.8814 17.6013 11.5937C18.0772 12.3059 18.3312 13.1433 18.3312 14C18.3312 15.1487 17.8749 16.2504 17.0626 17.0626C16.2504 17.8749 15.1487 18.3312 14 18.3312ZM18.5 10.5125C18.2314 10.5125 17.9739 10.4058 17.784 10.2159C17.5941 10.026 17.4875 9.76851 17.4875 9.49998C17.4875 9.23144 17.5941 8.97391 17.784 8.78403C17.9739 8.59415 18.2314 8.48748 18.5 8.48748C18.7685 8.48748 19.026 8.59415 19.2159 8.78403C19.4058 8.97391 19.5125 9.23144 19.5125 9.49998C19.5125 9.76851 19.4058 10.026 19.2159 10.2159C19.026 10.4058 18.7685 10.5125 18.5 10.5125Z" fill="#747474"/>
<path d="M14 16.8125C15.5533 16.8125 16.8125 15.5533 16.8125 14C16.8125 12.4467 15.5533 11.1875 14 11.1875C12.4467 11.1875 11.1875 12.4467 11.1875 14C11.1875 15.5533 12.4467 16.8125 14 16.8125Z" fill="#747474"/>
<path d="M23.375 0.875H4.625C3.63044 0.875 2.67661 1.27009 1.97335 1.97335C1.27009 2.67661 0.875 3.63044 0.875 4.625V23.375C0.875 24.3696 1.27009 25.3234 1.97335 26.0266C2.67661 26.7299 3.63044 27.125 4.625 27.125H23.375C24.3696 27.125 25.3234 26.7299 26.0266 26.0266C26.7299 25.3234 27.125 24.3696 27.125 23.375V4.625C27.125 3.63044 26.7299 2.67661 26.0266 1.97335C25.3234 1.27009 24.3696 0.875 23.375 0.875ZM22.4375 17.4781C22.4184 18.1793 22.2854 18.8727 22.0438 19.5312C21.8251 20.0901 21.4931 20.5976 21.0688 21.0219C20.6445 21.4462 20.1369 21.7782 19.5781 21.9969C18.9196 22.2386 18.2262 22.3716 17.525 22.3906C16.5875 22.3906 16.3344 22.4375 14.0469 22.4375C11.7594 22.4375 11.4688 22.4375 10.5688 22.3906C9.86755 22.3716 9.17412 22.2386 8.51562 21.9969C7.94815 21.7837 7.4315 21.4542 6.99882 21.0296C6.56615 20.605 6.227 20.0946 6.00312 19.5312C5.76143 18.8727 5.62844 18.1793 5.60938 17.4781C5.60938 16.5406 5.60938 16.2875 5.60938 14C5.60938 11.7125 5.60938 11.4219 5.60938 10.5219C5.62844 9.82068 5.76143 9.12725 6.00312 8.46875C6.22181 7.90993 6.55375 7.4024 6.97808 6.97808C7.4024 6.55375 7.90993 6.22181 8.46875 6.00312C9.12725 5.76143 9.82068 5.62844 10.5219 5.60938C11.4594 5.60938 11.7125 5.60938 14 5.60938C16.2875 5.60938 16.5781 5.60938 17.4781 5.60938C18.1793 5.62844 18.8727 5.76143 19.5312 6.00312C20.0901 6.22181 20.5976 6.55375 21.0219 6.97808C21.4462 7.4024 21.7782 7.90993 21.9969 8.46875C22.2546 9.12456 22.4034 9.81807 22.4375 10.5219C22.4375 11.4594 22.4844 11.7125 22.4844 14C22.4844 16.2875 22.4375 16.5781 22.4375 17.4781Z" fill="#747474"/>
</svg>
