<svg width="30" height="30" viewBox="0 0 30 30" fill="none" xmlns="http://www.w3.org/2000/svg">
<g clip-path="url(#clip0_801_124)">
<path d="M23.4375 3.1875H6.5625C4.69854 3.1875 3.1875 4.69854 3.1875 6.5625V23.4375C3.1875 25.3015 4.69854 26.8125 6.5625 26.8125H23.4375C25.3015 26.8125 26.8125 25.3015 26.8125 23.4375V6.5625C26.8125 4.69854 25.3015 3.1875 23.4375 3.1875Z" fill="white"/>
<path d="M24.375 1.875H5.625C4.63044 1.875 3.67661 2.27009 2.97335 2.97335C2.27009 3.67661 1.875 4.63044 1.875 5.625V24.375C1.875 25.3696 2.27009 26.3234 2.97335 27.0266C3.67661 27.7299 4.63044 28.125 5.625 28.125H24.375C25.3696 28.125 26.3234 27.7299 27.0266 27.0266C27.7299 26.3234 28.125 25.3696 28.125 24.375V5.625C28.125 4.63044 27.7299 3.67661 27.0266 2.97335C26.3234 2.27009 25.3696 1.875 24.375 1.875ZM23.6437 19.3687C23.5429 19.7537 23.3425 20.1053 23.0627 20.3884C22.783 20.6714 22.4337 20.8759 22.05 20.9812C19.7106 21.2593 17.3557 21.3846 15 21.3563C12.6443 21.3846 10.2894 21.2593 7.95 20.9812C7.56626 20.8759 7.217 20.6714 6.93726 20.3884C6.65752 20.1053 6.45715 19.7537 6.35625 19.3687C6.09758 17.9271 5.97205 16.4647 5.98125 15C5.97205 13.5353 6.09758 12.0729 6.35625 10.6313C6.45715 10.2463 6.65752 9.89468 6.93726 9.61165C7.217 9.32862 7.56626 9.12414 7.95 9.01875C10.2894 8.74071 12.6443 8.61545 15 8.64375C17.3557 8.61545 19.7106 8.74071 22.05 9.01875C22.4337 9.12414 22.783 9.32862 23.0627 9.61165C23.3425 9.89468 23.5429 10.2463 23.6437 10.6313C23.9024 12.0729 24.028 13.5353 24.0188 15C24.028 16.4647 23.9024 17.9271 23.6437 19.3687Z" fill="#747474"/>
<path d="M13.1531 17.6812L17.8688 15L13.1531 12.3187V17.6812Z" fill="#747474"/>
</g>
<defs>
<clipPath id="clip0_801_124">
<rect width="30" height="30" fill="white"/>
</clipPath>
</defs>
</svg>
